custom-analysis
version=1
nRows=12
nColumns=38
inDegrees=no

This file contains tibia displacement and acting force.

Units are S.I. units (seconds, meters, Newtons, ...)
Angles are in degrees.

endheader
time	APT	SIT	knee_angle	aACL_R_force	pACL_R_force	aPCL_R_force	pPCL_R_force	aMCL_R_force	aLCL_R_force	aPCL_L_force	pPCL_L_force	aMCL_L_force	aLCL_L_force	aACL_R_length	pACL_R_length	aPCL_R_length	pPCL_R_length	aMCL_R_length	aLCL_R_length	aPCL_L_length	pPCL_L_length	aMCL_L_length	aLCL_L_length	aACL_R_strain	pACL_R_strain	aPCL_R_strain	pPCL_R_strain	aMCL_R_strain	aLCL_R_strain	aPCL_L_strain	pPCL_L_strain	aMCL_L_strain	aLCL_L_strain	femur_lat_meniscii_force_r	femur_med_meniscii_force_r	femur_lat_tibia_force_r	femur_med_tibia_force_r
      0.03597316	      0.01034591	      0.03080281	      4.24214757	   -102.11058063	    145.88741503	      0.00000000	     42.06785958	      0.00000000	      0.00000000	      0.00000000	      0.00000000	    -25.50298872	      0.00000000	      0.03179387	      0.02587577	      0.02659162	      0.02517958	      0.05073049	      0.03391683	      0.01674339	      0.02279154	      0.07595540	      0.05266026	      0.00401688	      0.07549481	     -0.00707692	      0.02403143	     -0.31153366	     -0.36114233	     -0.37480688	     -0.07308795	      0.03079503	     -0.00809099	      0.00000000	      0.00000000	      0.00000000	      0.00000000
      0.03667468	      0.01039482	      0.03176420	      4.30465676	      0.00000000	    156.20467019	    170.37995719	     35.50978324	      0.00000000	      0.00000000	      0.00000000	      0.00000000	    -26.06440373	      0.00000000	      0.03160870	      0.02600786	      0.02692277	      0.02520306	      0.04982678	      0.03291720	      0.01668177	      0.02277118	      0.07591039	      0.05260782	     -0.00183053	      0.08098522	      0.00528813	      0.02498644	     -0.32379797	     -0.37997146	     -0.37710769	     -0.07391625	      0.03018417	     -0.00907870	      0.00000000	      0.00000000	      0.00000000	      0.00000000
      0.03756983	      0.01041235	      0.03298608	      4.38130153	      0.00000000	    154.74059274	    158.72873278	    -43.84329007	      0.00000000	      0.00000000	      0.00000000	      0.00000000	    -26.46030967	      0.00000000	      0.03132391	      0.02615802	      0.02732019	      0.02517468	      0.04862430	      0.03158625	      0.01660313	      0.02274956	      0.07585351	      0.05254013	     -0.01082376	      0.08722633	      0.02012753	      0.02383231	     -0.34011686	     -0.40504116	     -0.38004411	     -0.07479519	      0.02941236	     -0.01035363	      0.00000000	      0.00000000	      0.00000000	      0.00000000
      0.03912983	      0.01032878	      0.03509807	      4.50664953	      0.00000000	    169.39940417	    175.53990627	    -79.86436853	      0.00000000	      0.00000000	      0.00000000	      0.00000000	    -26.56483516	      0.00000000	      0.03072691	      0.02639582	      0.02801034	      0.02504176	      0.04641515	      0.02914761	      0.01646663	      0.02272380	      0.07575673	      0.05242075	     -0.02967663	      0.09711012	      0.04589765	      0.01842655	     -0.37009733	     -0.45097544	     -0.38514113	     -0.07584309	      0.02809888	     -0.01260241	      0.00000000	      0.00000000	      0.00000000	      0.00000000
      0.04118647	      0.01002038	      0.03783411	      4.65803552	      0.00000000	    203.91956264	    218.51387912	    -82.28104145	      0.00000000	      0.00000000	      0.00000000	      0.00000000	    -25.80913918	      0.00000000	      0.02982529	      0.02673668	      0.02902223	      0.02484603	      0.04333111	      0.02576955	      0.01628928	      0.02271299	      0.07563529	      0.05226166	     -0.05814872	      0.11127745	      0.08368112	      0.01046639	     -0.41195100	     -0.51460452	     -0.39176329	     -0.07628261	      0.02645081	     -0.01559888	      0.00000000	      0.00000000	      0.00000000	      0.00000000
      0.04153435	      0.00994679	      0.03828856	      4.68231337	      0.00000000	    211.27461907	    227.00582825	    -81.58504777	      0.00000000	      0.00000000	      0.00000000	      0.00000000	    -25.60407846	      0.00000000	      0.02966387	      0.02680161	      0.02920688	      0.02481487	      0.04279310	      0.02518427	      0.01625973	      0.02271375	      0.07561556	      0.05223460	     -0.06324619	      0.11397645	      0.09057598	      0.00919883	     -0.41925237	     -0.52562884	     -0.39286670	     -0.07625187	      0.02618305	     -0.01610858	      0.00000000	      0.00000000	      0.00000000	      0.00000000
      0.04327372	      0.00948765	      0.04050555	      4.79899892	      0.00000000	    256.38364174	    276.24961398	    -70.66180455	      0.00000000	      0.00000000	      0.00000000	      0.00000000	    -24.31264490	      0.00000000	      0.02883280	      0.02717375	      0.03018307	      0.02467056	      0.04004921	      0.02222422	      0.01611436	      0.02272846	      0.07552080	      0.05209867	     -0.08949048	      0.12944391	      0.12702667	      0.00332988	     -0.45648988	     -0.58138435	     -0.39829463	     -0.07565356	      0.02489708	     -0.01866896	      0.00000000	      0.00000000	      0.00000000	      0.00000000
      0.04532912	      0.00876413	      0.04295183	      4.93129902	      0.00000000	    330.82674088	    347.79722582	      0.00000000	      0.00000000	      0.00000000	      0.00000000	      0.00000000	    -22.42269213	      0.00000000	      0.02784970	      0.02775384	      0.03143908	      0.02454316	      0.03676126	      0.01878146	      0.01594839	      0.02276827	      0.07541757	      0.05193654	     -0.12053570	      0.15355475	      0.17392565	     -0.00185137	     -0.50111087	     -0.64623227	     -0.40449209	     -0.07403455	      0.02349621	     -0.02172285	      0.00000000	      0.00000000	      0.00000000	      0.00000000
      0.04809943	      0.00755439	      0.04578473	      5.11537507	      0.00000000	    470.31209259	    454.40476526	      0.00000000	      0.00000000	      0.00000000	      0.00000000	      0.00000000	    -19.67548755	      0.00000000	      0.02671831	      0.02889417	      0.03324983	      0.02449087	      0.03253692	      0.01488956	      0.01573663	      0.02285709	      0.07529365	      0.05171398	     -0.15626405	      0.20095107	      0.24153833	     -0.00397789	     -0.55843961	     -0.71954009	     -0.41239894	     -0.07042235	      0.02181440	     -0.02591513	      0.00000000	      0.00000000	      0.00000000	      0.00000000
      0.04810220	      0.00755312	      0.04578721	      5.11557265	      0.00000000	    470.22949668	    454.45549685	      0.00000000	      0.00000000	      0.00000000	      0.00000000	      0.00000000	    -19.67272180	      0.00000000	      0.02671739	      0.02889552	      0.03325172	      0.02449099	      0.03253304	      0.01488660	      0.01573643	      0.02285719	      0.07529353	      0.05171375	     -0.15629297	      0.20100717	      0.24160901	     -0.00397304	     -0.55849227	     -0.71959587	     -0.41240657	     -0.07041801	      0.02181283	     -0.02591937	      0.00000000	      0.00000000	      0.00000000	      0.00000000
      0.04810358	      0.00755248	      0.04578844	      5.11567193	      0.00000000	    470.19705370	    454.48318148	      0.00000000	      0.00000000	      0.00000000	      0.00000000	      0.00000000	    -19.67133885	      0.00000000	      0.02671693	      0.02889619	      0.03325267	      0.02449105	      0.03253110	      0.01488512	      0.01573633	      0.02285725	      0.07529348	      0.05171364	     -0.15630741	      0.20103520	      0.24164434	     -0.00397057	     -0.55851859	     -0.71962371	     -0.41241039	     -0.07041583	      0.02181204	     -0.02592150	      0.00000000	      0.00000000	      0.00000000	      0.00000000
      0.04810655	      0.00755112	      0.04579109	      5.11588526	      0.00000000	    470.18351117	    454.55791444	      0.00000000	      0.00000000	      0.00000000	      0.00000000	      0.00000000	    -19.66837903	      0.00000000	      0.02671595	      0.02889764	      0.03325469	      0.02449118	      0.03252695	      0.01488196	      0.01573611	      0.02285736	      0.07529335	      0.05171340	     -0.15633827	      0.20109516	      0.24171996	     -0.00396523	     -0.55857490	     -0.71968321	     -0.41241856	     -0.07041118	      0.02181036	     -0.02592604	      0.00000000	      0.00000000	      0.00000000	      0.00000000
